<mxfile host="app.diagrams.net" agent="Mozilla/5.0 (Windows NT 10.0; Win64; x64) AppleWebKit/537.36 (KHTML, like Gecko) Chrome/126.0.0.0 Safari/537.36" version="24.7.4">
  <diagram name="PÃ¡gina-1" id="GFQWVyfjw6wAiPOebULH">
    <mxGraphModel grid="0" page="0" gridSize="10" guides="1" tooltips="1" connect="1" arrows="1" fold="1" pageScale="1" pageWidth="827" pageHeight="1169" math="0" shadow="0">
      <root>
        <mxCell id="0" />
        <mxCell id="1" parent="0" />
        <mxCell id="D3cJpMtDiG0-v1c3a6vp-4" value="Fabrica" style="swimlane;fontStyle=1;align=center;verticalAlign=top;childLayout=stackLayout;horizontal=1;startSize=26;horizontalStack=0;resizeParent=1;resizeParentMax=0;resizeLast=0;collapsible=1;marginBottom=0;whiteSpace=wrap;html=1;" vertex="1" parent="1">
          <mxGeometry x="5" y="-123" width="160" height="86" as="geometry" />
        </mxCell>
        <mxCell id="D3cJpMtDiG0-v1c3a6vp-5" value="+ field: type" style="text;strokeColor=none;fillColor=none;align=left;verticalAlign=top;spacingLeft=4;spacingRight=4;overflow=hidden;rotatable=0;points=[[0,0.5],[1,0.5]];portConstraint=eastwest;whiteSpace=wrap;html=1;" vertex="1" parent="D3cJpMtDiG0-v1c3a6vp-4">
          <mxGeometry y="26" width="160" height="26" as="geometry" />
        </mxCell>
        <mxCell id="D3cJpMtDiG0-v1c3a6vp-6" value="" style="line;strokeWidth=1;fillColor=none;align=left;verticalAlign=middle;spacingTop=-1;spacingLeft=3;spacingRight=3;rotatable=0;labelPosition=right;points=[];portConstraint=eastwest;strokeColor=inherit;" vertex="1" parent="D3cJpMtDiG0-v1c3a6vp-4">
          <mxGeometry y="52" width="160" height="8" as="geometry" />
        </mxCell>
        <mxCell id="D3cJpMtDiG0-v1c3a6vp-7" value="+ method(type): type" style="text;strokeColor=none;fillColor=none;align=left;verticalAlign=top;spacingLeft=4;spacingRight=4;overflow=hidden;rotatable=0;points=[[0,0.5],[1,0.5]];portConstraint=eastwest;whiteSpace=wrap;html=1;" vertex="1" parent="D3cJpMtDiG0-v1c3a6vp-4">
          <mxGeometry y="60" width="160" height="26" as="geometry" />
        </mxCell>
        <mxCell id="D3cJpMtDiG0-v1c3a6vp-18" value="" style="edgeStyle=none;curved=1;rounded=0;orthogonalLoop=1;jettySize=auto;html=1;fontSize=12;startSize=8;endSize=8;endArrow=block;endFill=0;" edge="1" parent="1" source="D3cJpMtDiG0-v1c3a6vp-12" target="D3cJpMtDiG0-v1c3a6vp-7">
          <mxGeometry relative="1" as="geometry" />
        </mxCell>
        <mxCell id="D3cJpMtDiG0-v1c3a6vp-12" value="&lt;p style=&quot;margin:0px;margin-top:4px;text-align:center;&quot;&gt;&lt;b&gt;Vehiculo (Abstract)&lt;/b&gt;&lt;/p&gt;&lt;hr size=&quot;1&quot; style=&quot;border-style:solid;&quot;&gt;&lt;p style=&quot;margin:0px;margin-left:4px;&quot;&gt;+ modelo: String&lt;/p&gt;&lt;p style=&quot;margin:0px;margin-left:4px;&quot;&gt;+ marca: String&lt;/p&gt;&lt;hr size=&quot;1&quot; style=&quot;border-style:solid;&quot;&gt;&lt;p style=&quot;margin:0px;margin-left:4px;&quot;&gt;+ agregarAccesorio(): void&lt;/p&gt;" style="verticalAlign=top;align=left;overflow=fill;html=1;whiteSpace=wrap;" vertex="1" parent="1">
          <mxGeometry x="109" y="35" width="160" height="90" as="geometry" />
        </mxCell>
        <mxCell id="D3cJpMtDiG0-v1c3a6vp-17" value="" style="edgeStyle=none;curved=1;rounded=0;orthogonalLoop=1;jettySize=auto;html=1;fontSize=12;startSize=8;endSize=8;endArrow=block;endFill=0;" edge="1" parent="1" source="D3cJpMtDiG0-v1c3a6vp-13" target="D3cJpMtDiG0-v1c3a6vp-12">
          <mxGeometry relative="1" as="geometry" />
        </mxCell>
        <mxCell id="D3cJpMtDiG0-v1c3a6vp-13" value="&lt;p style=&quot;margin:0px;margin-top:4px;text-align:center;&quot;&gt;&lt;b&gt;Accesorio (Abstract)&lt;/b&gt;&lt;/p&gt;&lt;hr size=&quot;1&quot; style=&quot;border-style:solid;&quot;&gt;&lt;p style=&quot;margin:0px;margin-left:4px;&quot;&gt;+ nombre: String&lt;/p&gt;&lt;p style=&quot;margin:0px;margin-left:4px;&quot;&gt;+ descripcion: String&lt;/p&gt;&lt;p style=&quot;margin:0px;margin-left:4px;&quot;&gt;+ precio: double&lt;/p&gt;&lt;hr size=&quot;1&quot; style=&quot;border-style:solid;&quot;&gt;&lt;p style=&quot;margin:0px;margin-left:4px;&quot;&gt;+ method(): Type&lt;/p&gt;" style="verticalAlign=top;align=left;overflow=fill;html=1;whiteSpace=wrap;" vertex="1" parent="1">
          <mxGeometry x="-148" y="28" width="160" height="112" as="geometry" />
        </mxCell>
        <mxCell id="D3cJpMtDiG0-v1c3a6vp-22" style="edgeStyle=none;curved=1;rounded=0;orthogonalLoop=1;jettySize=auto;html=1;fontSize=12;startSize=8;endSize=8;endArrow=block;endFill=0;" edge="1" parent="1" source="D3cJpMtDiG0-v1c3a6vp-14" target="D3cJpMtDiG0-v1c3a6vp-12">
          <mxGeometry relative="1" as="geometry" />
        </mxCell>
        <mxCell id="D3cJpMtDiG0-v1c3a6vp-39" value="" style="edgeStyle=orthogonalEdgeStyle;rounded=0;orthogonalLoop=1;jettySize=auto;html=1;fontSize=12;startSize=8;endSize=8;dashed=1;dashPattern=8 8;endArrow=block;endFill=0;" edge="1" parent="1" source="D3cJpMtDiG0-v1c3a6vp-14" target="D3cJpMtDiG0-v1c3a6vp-36">
          <mxGeometry relative="1" as="geometry" />
        </mxCell>
        <mxCell id="D3cJpMtDiG0-v1c3a6vp-14" value="&lt;p style=&quot;margin:0px;margin-top:4px;text-align:center;&quot;&gt;&lt;b&gt;Diesel (Interface)&lt;/b&gt;&lt;/p&gt;&lt;hr size=&quot;1&quot; style=&quot;border-style:solid;&quot;&gt;&lt;p style=&quot;margin:0px;margin-left:4px;&quot;&gt;+ field: Type&lt;/p&gt;&lt;hr size=&quot;1&quot; style=&quot;border-style:solid;&quot;&gt;&lt;p style=&quot;margin:0px;margin-left:4px;&quot;&gt;+ consumirDiesel(): void&lt;/p&gt;" style="verticalAlign=top;align=left;overflow=fill;html=1;whiteSpace=wrap;" vertex="1" parent="1">
          <mxGeometry x="348" y="160" width="160" height="90" as="geometry" />
        </mxCell>
        <mxCell id="D3cJpMtDiG0-v1c3a6vp-38" value="" style="edgeStyle=orthogonalEdgeStyle;rounded=0;orthogonalLoop=1;jettySize=auto;html=1;fontSize=12;startSize=8;endSize=8;dashed=1;dashPattern=8 8;endArrow=block;endFill=0;" edge="1" parent="1" source="D3cJpMtDiG0-v1c3a6vp-15" target="D3cJpMtDiG0-v1c3a6vp-34">
          <mxGeometry relative="1" as="geometry" />
        </mxCell>
        <mxCell id="D3cJpMtDiG0-v1c3a6vp-15" value="&lt;p style=&quot;margin:0px;margin-top:4px;text-align:center;&quot;&gt;&lt;b&gt;Gasolina (Interface)&lt;/b&gt;&lt;/p&gt;&lt;hr size=&quot;1&quot; style=&quot;border-style:solid;&quot;&gt;&lt;p style=&quot;margin:0px;margin-left:4px;&quot;&gt;+ field: Type&lt;/p&gt;&lt;hr size=&quot;1&quot; style=&quot;border-style:solid;&quot;&gt;&lt;p style=&quot;margin:0px;margin-left:4px;&quot;&gt;+ consumirGasolina(): void&lt;/p&gt;" style="verticalAlign=top;align=left;overflow=fill;html=1;whiteSpace=wrap;" vertex="1" parent="1">
          <mxGeometry x="348" y="45" width="160" height="90" as="geometry" />
        </mxCell>
        <mxCell id="D3cJpMtDiG0-v1c3a6vp-20" style="edgeStyle=none;curved=1;rounded=0;orthogonalLoop=1;jettySize=auto;html=1;exitX=0;exitY=0.5;exitDx=0;exitDy=0;fontSize=12;startSize=8;endSize=8;endArrow=block;endFill=0;" edge="1" parent="1" source="D3cJpMtDiG0-v1c3a6vp-16" target="D3cJpMtDiG0-v1c3a6vp-12">
          <mxGeometry relative="1" as="geometry" />
        </mxCell>
        <mxCell id="D3cJpMtDiG0-v1c3a6vp-37" value="" style="edgeStyle=none;curved=1;rounded=0;orthogonalLoop=1;jettySize=auto;html=1;fontSize=12;startSize=8;endSize=8;dashed=1;dashPattern=8 8;endArrow=block;endFill=0;" edge="1" parent="1" source="D3cJpMtDiG0-v1c3a6vp-16" target="D3cJpMtDiG0-v1c3a6vp-35">
          <mxGeometry relative="1" as="geometry" />
        </mxCell>
        <mxCell id="D3cJpMtDiG0-v1c3a6vp-16" value="&lt;p style=&quot;margin:0px;margin-top:4px;text-align:center;&quot;&gt;&lt;b&gt;Electrico (Interface)&lt;/b&gt;&lt;/p&gt;&lt;hr size=&quot;1&quot; style=&quot;border-style:solid;&quot;&gt;&lt;p style=&quot;margin:0px;margin-left:4px;&quot;&gt;+ field: Type&lt;/p&gt;&lt;hr size=&quot;1&quot; style=&quot;border-style:solid;&quot;&gt;&lt;p style=&quot;margin:0px;margin-left:4px;&quot;&gt;+ cargar(): void&lt;/p&gt;&lt;p style=&quot;margin:0px;margin-left:4px;&quot;&gt;+ descargar(): void&lt;/p&gt;" style="verticalAlign=top;align=left;overflow=fill;html=1;whiteSpace=wrap;" vertex="1" parent="1">
          <mxGeometry x="348" y="-70" width="160" height="90" as="geometry" />
        </mxCell>
        <mxCell id="D3cJpMtDiG0-v1c3a6vp-21" style="edgeStyle=none;curved=1;rounded=0;orthogonalLoop=1;jettySize=auto;html=1;exitX=0;exitY=0.5;exitDx=0;exitDy=0;entryX=0.988;entryY=0.589;entryDx=0;entryDy=0;entryPerimeter=0;fontSize=12;startSize=8;endSize=8;endArrow=block;endFill=0;" edge="1" parent="1" source="D3cJpMtDiG0-v1c3a6vp-15" target="D3cJpMtDiG0-v1c3a6vp-12">
          <mxGeometry relative="1" as="geometry" />
        </mxCell>
        <mxCell id="D3cJpMtDiG0-v1c3a6vp-23" value="&lt;p style=&quot;margin:0px;margin-top:4px;text-align:center;&quot;&gt;&lt;b&gt;Neblinera&lt;/b&gt;&lt;/p&gt;&lt;hr size=&quot;1&quot; style=&quot;border-style:solid;&quot;&gt;&lt;p style=&quot;margin:0px;margin-left:4px;&quot;&gt;+ field: Type&lt;/p&gt;&lt;hr size=&quot;1&quot; style=&quot;border-style:solid;&quot;&gt;&lt;p style=&quot;margin:0px;margin-left:4px;&quot;&gt;+ iluminar(): void&lt;/p&gt;" style="verticalAlign=top;align=left;overflow=fill;html=1;whiteSpace=wrap;" vertex="1" parent="1">
          <mxGeometry x="-290" y="213" width="160" height="90" as="geometry" />
        </mxCell>
        <mxCell id="D3cJpMtDiG0-v1c3a6vp-32" style="edgeStyle=none;curved=1;rounded=0;orthogonalLoop=1;jettySize=auto;html=1;fontSize=12;startSize=8;endSize=8;endArrow=block;endFill=0;" edge="1" parent="1" source="D3cJpMtDiG0-v1c3a6vp-24" target="D3cJpMtDiG0-v1c3a6vp-13">
          <mxGeometry relative="1" as="geometry" />
        </mxCell>
        <mxCell id="D3cJpMtDiG0-v1c3a6vp-24" value="&lt;p style=&quot;margin:0px;margin-top:4px;text-align:center;&quot;&gt;&lt;b&gt;Sensor&lt;/b&gt;&lt;/p&gt;&lt;hr size=&quot;1&quot; style=&quot;border-style:solid;&quot;&gt;&lt;p style=&quot;margin:0px;margin-left:4px;&quot;&gt;+ field: Type&lt;/p&gt;&lt;hr size=&quot;1&quot; style=&quot;border-style:solid;&quot;&gt;&lt;p style=&quot;margin:0px;margin-left:4px;&quot;&gt;+ detectarDistancia(): int&lt;/p&gt;" style="verticalAlign=top;align=left;overflow=fill;html=1;whiteSpace=wrap;" vertex="1" parent="1">
          <mxGeometry x="-94" y="213" width="160" height="90" as="geometry" />
        </mxCell>
        <mxCell id="D3cJpMtDiG0-v1c3a6vp-33" style="edgeStyle=none;curved=1;rounded=0;orthogonalLoop=1;jettySize=auto;html=1;fontSize=12;startSize=8;endSize=8;endArrow=block;endFill=0;" edge="1" parent="1" source="D3cJpMtDiG0-v1c3a6vp-25" target="D3cJpMtDiG0-v1c3a6vp-13">
          <mxGeometry relative="1" as="geometry" />
        </mxCell>
        <mxCell id="D3cJpMtDiG0-v1c3a6vp-25" value="&lt;p style=&quot;margin:0px;margin-top:4px;text-align:center;&quot;&gt;&lt;b&gt;Tapiceria&lt;/b&gt;&lt;/p&gt;&lt;hr size=&quot;1&quot; style=&quot;border-style:solid;&quot;&gt;&lt;p style=&quot;margin:0px;margin-left:4px;&quot;&gt;+ Tipo: String&lt;/p&gt;&lt;hr size=&quot;1&quot; style=&quot;border-style:solid;&quot;&gt;&lt;p style=&quot;margin:0px;margin-left:4px;&quot;&gt;+ method(): Type&lt;/p&gt;" style="verticalAlign=top;align=left;overflow=fill;html=1;whiteSpace=wrap;" vertex="1" parent="1">
          <mxGeometry x="84" y="213" width="160" height="90" as="geometry" />
        </mxCell>
        <mxCell id="D3cJpMtDiG0-v1c3a6vp-30" style="edgeStyle=none;curved=1;rounded=0;orthogonalLoop=1;jettySize=auto;html=1;entryX=0.606;entryY=1.009;entryDx=0;entryDy=0;entryPerimeter=0;fontSize=12;startSize=8;endSize=8;endArrow=block;endFill=0;" edge="1" parent="1" source="D3cJpMtDiG0-v1c3a6vp-23" target="D3cJpMtDiG0-v1c3a6vp-13">
          <mxGeometry relative="1" as="geometry" />
        </mxCell>
        <mxCell id="D3cJpMtDiG0-v1c3a6vp-34" value="&lt;p style=&quot;margin:0px;margin-top:4px;text-align:center;&quot;&gt;&lt;b&gt;HatchBackGasolina&lt;/b&gt;&lt;/p&gt;&lt;hr size=&quot;1&quot; style=&quot;border-style:solid;&quot;&gt;&lt;p style=&quot;margin:0px;margin-left:4px;&quot;&gt;+ cantPasajeros: int&lt;/p&gt;&lt;hr size=&quot;1&quot; style=&quot;border-style:solid;&quot;&gt;&lt;p style=&quot;margin:0px;margin-left:4px;&quot;&gt;+ method(): Type&lt;/p&gt;" style="verticalAlign=top;align=left;overflow=fill;html=1;whiteSpace=wrap;" vertex="1" parent="1">
          <mxGeometry x="619" y="45" width="160" height="90" as="geometry" />
        </mxCell>
        <mxCell id="D3cJpMtDiG0-v1c3a6vp-35" value="&lt;p style=&quot;margin:0px;margin-top:4px;text-align:center;&quot;&gt;&lt;b&gt;SedanElectrico&lt;/b&gt;&lt;/p&gt;&lt;hr size=&quot;1&quot; style=&quot;border-style:solid;&quot;&gt;&lt;p style=&quot;margin:0px;margin-left:4px;&quot;&gt;+ cantidadPasajeros: int&lt;/p&gt;&lt;hr size=&quot;1&quot; style=&quot;border-style:solid;&quot;&gt;&lt;p style=&quot;margin:0px;margin-left:4px;&quot;&gt;+ method(): Type&lt;/p&gt;" style="verticalAlign=top;align=left;overflow=fill;html=1;whiteSpace=wrap;" vertex="1" parent="1">
          <mxGeometry x="619" y="-70" width="160" height="90" as="geometry" />
        </mxCell>
        <mxCell id="D3cJpMtDiG0-v1c3a6vp-36" value="&lt;p style=&quot;margin:0px;margin-top:4px;text-align:center;&quot;&gt;&lt;b&gt;Class&lt;/b&gt;&lt;/p&gt;&lt;hr size=&quot;1&quot; style=&quot;border-style:solid;&quot;&gt;&lt;p style=&quot;margin:0px;margin-left:4px;&quot;&gt;+ capacidadCarga: long&lt;/p&gt;&lt;hr size=&quot;1&quot; style=&quot;border-style:solid;&quot;&gt;&lt;p style=&quot;margin:0px;margin-left:4px;&quot;&gt;+ method(): Type&lt;/p&gt;" style="verticalAlign=top;align=left;overflow=fill;html=1;whiteSpace=wrap;" vertex="1" parent="1">
          <mxGeometry x="619" y="165" width="160" height="90" as="geometry" />
        </mxCell>
      </root>
    </mxGraphModel>
  </diagram>
</mxfile>
